PathFileType	4	(X/Y/Z)	Walk1.trc
DataRate	CameraRate	NumFrames	NumMarkers	Units	OrigDataRate	OrigDataStartFrame	OrigNumFrames
200.000000	200.000000	7	56	mm	200.000000	715	966
Frame#	Times		LToe		LBHD		RLFC		LACR1		RTH2		C7		LElbow		LUA1		RWRU		LCAR		RMT1		RCAL		LMFC		LWRU		RMT5		RMFC		RTB2		RToe		LWRR		RCAR		RTB3		RTB4		LTH4		RTB1		RFA1		LTH1		LPSI		RElbow		LFHD		RBHD		RPSI		RElbowM		LTH3		T10		RACR1		LASI		LMMAL		LTH2		RTH3		LLFC		LCAL		RMMAL		RBack		RTH1		LTB2		LTB3		RTH4		RFHD		RLMAL		LMT5		RASI		RWRR		LMT1		LLMAL		LTB1		LTB4
			X1	Y1	Z1	X2	Y2	Z2	X3	Y3	Z3	X4	Y4	Z4	X5	Y5	Z5	X6	Y6	Z6	X7	Y7	Z7	X8	Y8	Z8	X9	Y9	Z9	X10	Y10	Z10	X11	Y11	Z11	X12	Y12	Z12	X13	Y13	Z13	X14	Y14	Z14	X15	Y15	Z15	X16	Y16	Z16	X17	Y17	Z17	X18	Y18	Z18	X19	Y19	Z19	X20	Y20	Z20	X21	Y21	Z21	X22	Y22	Z22	X23	Y23	Z23	X24	Y24	Z24	X25	Y25	Z25	X26	Y26	Z26	X27	Y27	Z27	X28	Y28	Z28	X29	Y29	Z29	X30	Y30	Z30	X31	Y31	Z31	X32	Y32	Z32	X33	Y33	Z33	X34	Y34	Z34	X35	Y35	Z35	X36	Y36	Z36	X37	Y37	Z37	X38	Y38	Z38	X39	Y39	Z39	X40	Y40	Z40	X41	Y41	Z41	X42	Y42	Z42	X43	Y43	Z43	X44	Y44	Z44	X45	Y45	Z45	X46	Y46	Z46	X47	Y47	Z47	X48	Y48	Z48	X49	Y49	Z49	X50	Y50	Z50	X51	Y51	Z51	X52	Y52	Z52	X53	Y53	Z53	X54	Y54	Z54	X55	Y55	Z55	X56	Y56	Z56

715	3.575	-101.24	40.854	-64.629	-154.85	1622.8	-65.617	-48.086	543.97	127.3	-122.33	1422.7	-174.67	-41.794	701.81	101.25	-213.46	1484.8	-11.038	-170.8	1088.7	-308.29	-141.45	1223.9	-261.58	-234.11	817.4	251.22	-125.78	953.98	-303.67	65.391	50.54	53.111	-136.9	45.725	26.076	-232.37	495.67	-7.9932	22.958	838.83	-265.91	21.78	46.86	123.62	-67.171	506.01	3.4862	-33.456	309.78	117.31	110.58	57.975	97.388	-50.3	834.65	-283.56	-166.64	794.9	275.04	-33.511	222.37	41.963	-18.918	309.26	43.505	-189.17	669.83	-164.21	-4.5897	405.59	48.013	-246.64	937.99	277.27	-183.63	760.86	-182.33	-329.41	1045.5	-50.634	-269.3	1098.3	272.68	24.443	1612.5	-31.26	-158.57	1612.5	70.664	-334.07	1043.7	18.255	-300.08	1103.1	193.34	-195.55	577.65	-142.61	-307.98	1230.9	-13.347	-121.46	1421	148.43	-134.37	1038.5	-162.55	-280.59	67.682	-12.702	-130.14	672.71	-120.68	-61.548	588.74	131.17	-211.55	514.09	-134.36	-367.97	33.326	-45.912	-56.738	92.904	14.851	-255.01	1374.5	136.41	-132.09	762.89	161.13	-212.55	292.68	-117.18	-233.57	204.1	-44.264	-92.001	675.61	148.97	22.704	1608.6	43.657	-91.198	86.642	90.516	-189.73	25.318	-121.25	-148.4	991.46	145.07	-157.86	840.12	225.14	-150	29.767	-43.592	-302.9	59.413	-95.099	-186.54	383.28	-48.537	-211.06	293.88	-45.328
716	3.58	-101.03	40.503	-64.667	-149.83	1622.1	-65.007	-43.589	543.05	127.65	-117.16	1422.3	-174.23	-37.256	700.81	101.38	-208.29	1484.2	-10.543	-163.74	1088.3	-308.53	-135.46	1223.6	-261.62	-229.72	816.78	251.2	-117.55	953.91	-303.59	84.09	51.584	53.289	-118.05	42.593	26.841	-230.2	495.4	-8.033	31.989	840.17	-264.83	40.844	46.779	123.99	-62.408	504.58	3.8807	-22.625	309.33	117.92	129.23	59.8	97.394	-41.13	835.29	-282.81	-162.28	794.26	275.09	-19.737	221.77	42.737	-7.8939	309.11	44.138	-185.8	669.46	-164.23	3.3656	405.77	48.518	-242.24	937.34	277.32	-179.71	760.47	-182.32	-324.42	1044.9	-50.283	-264.83	1097.6	272.86	29.513	1612.1	-30.787	-153.43	1611.7	71.281	-328.97	1043	18.544	-295.52	1102.5	193.48	-192.74	577.26	-142.68	-302.95	1230.5	-13.033	-116.3	1420.2	148.84	-129.69	1038.1	-162.62	-280.46	67.569	-12.611	-126.82	671.96	-120.58	-57.087	587.83	131.52	-209.22	513.7	-134.39	-367.96	33.372	-45.856	-38.987	91.614	15.645	-249.89	1373.8	136.74	-127.2	762.17	161.49	-211.32	292.24	-117.18	-232.78	203.77	-44.229	-87.32	674.79	149.35	27.838	1608.1	44.129	-73.411	84.399	91.387	-189.65	25.211	-121.36	-143.24	990.54	145.21	-153.43	839.5	225.24	-149.91	29.671	-43.519	-302.83	59.414	-95.02	-184.86	382.72	-48.565	-209.78	293.44	-45.337
717	3.585	-100.82	40.152	-64.706	-144.78	1621.3	-64.375	-39.206	542.01	127.99	-111.97	1421.7	-173.76	-32.783	699.68	101.55	-203.09	1483.6	-10.038	-156.68	1087.8	-308.75	-129.47	1223.3	-261.64	-225.3	816.14	251.18	-109.36	953.82	-303.49	102.6	52.931	53.45	-99.301	39.763	27.75	-227.99	495.11	-8.055	40.937	841.48	-263.73	59.815	47.042	124.38	-57.687	503.1	4.2309	-11.906	308.98	118.55	147.7	61.993	97.331	-32.033	835.91	-282.06	-157.9	793.6	275.15	-6.0979	221.34	43.558	2.9988	309.06	44.782	-182.42	669.08	-164.23	11.184	405.96	49.007	-237.82	936.67	277.39	-175.78	760.05	-182.29	-319.41	1044.3	-49.902	-260.34	1097	273.05	34.61	1611.7	-30.29	-148.27	1610.9	71.92	-323.83	1042.3	18.857	-290.93	1101.9	193.64	-189.92	576.87	-142.75	-297.89	1230	-12.689	-111.11	1419.4	149.27	-125.07	1037.6	-162.67	-280.32	67.463	-12.523	-123.49	671.18	-120.48	-52.735	586.79	131.86	-206.87	513.3	-134.41	-367.94	33.424	-45.799	-21.383	90.597	16.527	-244.75	1373.1	137.08	-122.39	761.33	161.86	-210.08	291.8	-117.17	-231.97	203.43	-44.189	-82.747	673.87	149.74	32.999	1607.6	44.623	-55.69	82.457	92.36	-189.56	25.101	-121.47	-138.03	989.58	145.37	-148.97	838.86	225.36	-149.83	29.586	-43.439	-302.75	59.419	-94.941	-183.17	382.14	-48.582	-208.51	292.99	-45.334
718	3.59	-100.6	39.801	-64.747	-139.7	1620.5	-63.722	-34.919	540.88	128.32	-106.75	1421.2	-173.29	-28.365	698.45	101.77	-197.87	1482.9	-9.5246	-149.65	1087.3	-308.92	-123.46	1222.9	-261.63	-220.86	815.49	251.18	-101.22	953.72	-303.36	120.88	54.593	53.6	-80.695	37.23	28.802	-225.76	494.82	-8.0596	49.798	842.73	-262.61	78.643	47.663	124.78	-52.995	501.56	4.5353	-1.3114	308.74	119.18	165.95	64.564	97.207	-23.016	836.51	-281.3	-153.5	792.92	275.23	7.3807	221.08	44.419	13.746	309.08	45.434	-179.03	668.67	-164.22	18.869	406.15	49.475	-233.38	935.98	277.47	-171.84	759.62	-182.26	-314.36	1043.7	-49.492	-255.84	1096.3	273.26	39.732	1611.2	-29.77	-143.08	1610	72.58	-318.66	1041.5	19.197	-286.32	1101.3	193.81	-187.08	576.45	-142.81	-292.81	1229.4	-12.312	-105.88	1418.5	149.72	-120.51	1037.1	-162.68	-280.19	67.363	-12.436	-120.14	670.39	-120.38	-48.478	585.64	132.18	-204.5	512.87	-134.42	-367.92	33.48	-45.74	-3.9733	89.849	17.489	-239.58	1372.4	137.45	-117.66	760.38	162.22	-208.83	291.34	-117.15	-231.16	203.09	-44.143	-78.275	672.84	150.12	38.184	1607.1	45.139	-38.079	80.82	93.429	-189.48	24.989	-121.58	-132.78	988.58	145.53	-144.5	838.2	225.49	-149.74	29.514	-43.355	-302.67	59.426	-94.86	-181.47	381.55	-48.588	-207.24	292.54	-45.32
719	3.595	-100.38	39.453	-64.792	-134.6	1619.8	-63.049	-30.707	539.65	128.62	-101.49	1420.6	-172.79	-23.992	697.13	102.02	-192.63	1482.3	-9.0008	-142.63	1086.8	-309.06	-117.44	1222.5	-261.58	-216.4	814.81	251.18	-93.127	953.62	-303.2	138.87	56.576	53.749	-62.282	34.983	29.993	-223.49	494.51	-8.0474	58.568	843.95	-261.48	97.267	48.646	125.2	-48.316	499.99	4.7942	9.1472	308.61	119.83	183.91	67.511	97.033	-14.085	837.09	-280.52	-149.08	792.22	275.32	20.671	220.97	45.311	24.335	309.19	46.092	-175.61	668.25	-164.19	26.426	406.34	49.921	-228.92	935.28	277.56	-167.88	759.16	-182.21	-309.27	1043	-49.05	-251.32	1095.6	273.49	44.878	1610.7	-29.225	-137.86	1609.1	73.261	-313.45	1040.7	19.564	-281.69	1100.6	193.99	-184.23	576.03	-142.87	-287.7	1228.9	-11.901	-100.63	1417.5	150.18	-116.01	1036.6	-162.67	-280.06	67.27	-12.35	-116.77	669.58	-120.27	-44.299	584.39	132.49	-202.11	512.43	-134.41	-367.89	33.542	-45.68	13.192	89.363	18.524	-234.38	1371.6	137.83	-113	759.32	162.59	-207.55	290.87	-117.12	-230.34	202.75	-44.09	-73.893	671.71	150.5	43.391	1606.6	45.677	-20.629	79.485	94.582	-189.39	24.875	-121.69	-127.47	987.54	145.7	-140	837.53	225.65	-149.66	29.456	-43.266	-302.59	59.437	-94.779	-179.76	380.95	-48.582	-205.96	292.08	-45.297
720	3.6	-100.16	39.108	-64.84	-129.48	1618.9	-62.356	-26.548	538.35	128.91	-96.205	1420.1	-172.27	-19.654	695.72	102.31	-187.36	1481.5	-8.4658	-135.63	1086.3	-309.16	-111.4	1222.1	-261.48	-211.92	814.12	251.2	-85.097	953.5	-303.01	156.54	58.882	53.909	-44.115	33.009	31.31	-221.19	494.2	-8.0187	67.245	845.12	-260.35	115.62	49.985	125.65	-43.633	498.4	5.0095	19.458	308.57	120.47	201.54	70.824	96.827	-5.2422	837.65	-279.74	-144.65	791.49	275.42	33.744	221.02	46.226	34.754	309.37	46.75	-172.18	667.81	-164.14	33.864	406.54	50.342	-224.44	934.55	277.66	-163.89	758.67	-182.15	-304.15	1042.2	-48.578	-246.77	1094.9	273.72	50.044	1610.2	-28.657	-132.63	1608.2	73.961	-308.2	1039.9	19.96	-277.04	1100	194.19	-181.36	575.59	-142.91	-282.57	1228.2	-11.455	-95.356	1416.6	150.65	-111.56	1036	-162.63	-279.93	67.182	-12.262	-113.39	668.76	-120.16	-40.174	583.04	132.77	-199.7	511.98	-134.39	-367.86	33.61	-45.618	30.061	89.129	19.618	-229.15	1370.8	138.24	-108.42	758.16	162.95	-206.26	290.4	-117.08	-229.51	202.41	-44.031	-69.586	670.49	150.86	48.617	1606	46.237	-3.3948	78.445	95.805	-189.3	24.759	-121.81	-122.12	986.46	145.88	-135.49	836.83	225.82	-149.58	29.41	-43.174	-302.5	59.452	-94.696	-178.03	380.34	-48.566	-204.67	291.61	-45.263
721	3.605	-99.941	38.767	-64.894	-124.34	1618.1	-61.644	-22.416	536.98	129.18	-90.885	1419.4	-171.73	-15.334	694.25	102.65	-182.08	1480.8	-7.9176	-128.67	1085.8	-309.22	-105.34	1221.7	-261.33	-207.43	813.41	251.22	-77.13	953.38	-302.78	173.81	61.501	54.091	-26.247	31.288	32.734	-218.85	493.87	-7.9733	75.827	846.24	-259.21	133.65	51.658	126.12	-38.927	496.79	5.1857	29.61	308.63	121.12	218.79	74.48	96.608	3.5064	838.18	-278.94	-140.19	790.75	275.53	46.572	221.21	47.154	44.992	309.63	47.404	-168.72	667.35	-164.08	41.191	406.73	50.74	-219.94	933.81	277.78	-159.88	758.17	-182.07	-298.99	1041.5	-48.074	-242.21	1094.2	273.98	55.23	1609.6	-28.065	-127.37	1607.3	74.681	-302.91	1039	20.385	-272.36	1099.3	194.39	-178.47	575.14	-142.95	-277.41	1227.6	-10.974	-90.056	1415.6	151.15	-107.13	1035.4	-162.58	-279.8	67.099	-12.173	-109.99	667.93	-120.03	-36.081	581.62	133.02	-197.27	511.52	-134.36	-367.83	33.685	-45.554	46.585	89.131	20.757	-223.9	1369.9	138.66	-103.9	756.9	163.31	-204.96	289.92	-117.03	-228.67	202.06	-43.966	-65.337	669.18	151.21	53.861	1605.4	46.822	13.565	77.69	97.08	-189.22	24.643	-121.93	-116.71	985.34	146.08	-130.95	836.12	226	-149.5	29.377	-43.079	-302.42	59.472	-94.612	-176.29	379.73	-48.538	-203.38	291.13	-45.219
